<?xml version="1.0" encoding="UTF-8"?>
<svg width="24px" height="24px" viewBox="0 0 24 24" version="1.1" xmlns="http://www.w3.org/2000/svg" xmlns:xlink="http://www.w3.org/1999/xlink">
    <defs></defs>
    <g id="Home" stroke="none" stroke-width="1" fill="none" fill-rule="evenodd" opacity="0.200124547">
        <g id="Services" transform="translate(-336.000000, -336.000000)" fill-rule="nonzero" fill="#252525">
            <path d="M355.850182,343.386545 L352.531636,340.068 L356.031273,336.568364 C355.218545,336.206182 354.320727,336 353.372727,336 C349.757455,336 346.827273,338.930182 346.827273,342.545455 C346.827273,343.251273 346.941818,343.928727 347.148,344.564727 L336.543273,352.495636 C335.986909,352.912364 335.922545,353.722909 336.406909,354.221455 L341.686909,359.650909 C342.183273,360.161455 343.018909,360.103636 343.441091,359.529818 L351.355636,348.770182 C351.992727,348.976364 352.669091,349.090909 353.372727,349.090909 C356.988,349.090909 359.918182,346.160727 359.918182,342.545455 C359.918182,341.597455 359.712,340.699636 359.349818,339.885818 L355.850182,343.386545 Z" id="Shape"></path>
        </g>
    </g>
</svg>